#!OML:ASF F:\VICON\USERDATA\INSTALL\rory3\rory3.ASF
:FULLY-SPECIFIED
:DEGREES
141
root -0.8166126197111028 17.2472054718773 23.14919595903376 1.964487146188747 -2.8146924014798325 -2.1691801553160013
lfemur -19.276948618377173 4.232465192288121 -21.302330639853974
ltibia 58.78785829974585
lfoot 3.1195029365059024 -9.412064867120304
ltoes -12.857904056941525
rfemur -16.49245963212318 4.487582341524635 29.054003837454015
rtibia 86.22106894049541
rfoot 1.0761793055020408 -10.518712362889243
rtoes 0.816051179400294
lowerback 16.36777505048832 1.5527871199454837 1.3616709115873047
upperback -0.08120861134651725 2.5321001637026552 1.052270609591294
thorax -10.31319411323915 1.2018315572612703 -0.07853354187016437
lowerneck -18.76180860783467 -4.8103023234962325 -2.1233895513049235
upperneck 9.584737026345694 -6.627830010693042 4.214967144914267
head 6.065829517897462 -2.955087260035712 1.0546831938568046
lclavicle 1.1245391003426793e-15 -1.4766016290095907e-15
lhumerus -39.10299988645359 -16.686900518290194 97.84608270204805
lradius 108.18558719885607
lwrist 27.984270243763167
lhand -30.740208758225293 -0.30525106540789915
lfingers 7.125019999999998
lthumb -4.1444227585828575 30.088648267256772
rclavicle 1.1245391004127986e-15 -1.47660162896284e-15
rhumerus -52.23751523488575 9.503856809701364 -96.54890843933065
rradius 115.74814248408038
rwrist -13.695403719956602
rhand -19.346631495899373 36.38974850159184
rfingers 7.125019999999998
rthumb 5.878532562176019 6.998874409684827
142
root -0.80762064812855 17.21884829936193 23.27643305288187 1.9964857052970046 -2.926270023716044 -2.151620806596024
lfemur -19.243577258381404 4.359653829322391 -21.203797112856176
ltibia 59.65025284234309
lfoot 3.604103919829754 -8.424404429820102
ltoes -9.887629951126112
rfemur -16.5119571493319 4.498898856031047 29.062368529320583
rtibia 86.47861723607431
rfoot 0.8432048146226423 -10.587140149881028
rtoes 2.301676442203242
lowerback 16.297019389876816 1.5679778421364974 1.3352815906443871
upperback -0.07330167915576769 2.520669897705485 0.9748505787049402
thorax -10.360257560168368 1.2010767717685842 -0.008351634947611042
lowerneck -18.91240357324986 -4.801293310877908 -2.135963454418221
upperneck 9.339890358948631 -6.621992405851602 4.339860455816517
head 6.012758433792141 -2.9428144122195588 1.0862462862324154
lclavicle 1.124539100349568e-15 -1.4766016290045795e-15
lhumerus -38.955288867774826 -16.68981351924512 97.77338550398231
lradius 108.31592621339487
lwrist 28.24829887015369
lhand -31.01774031407439 -0.11712350591684378
lfingers 7.125019999999998
lthumb -4.406332047728865 30.198444063431033
rclavicle 1.1245391004136687e-15 -1.4766016289622319e-15
rhumerus -52.101290503909816 9.647133406847178 -96.70155842709133
rradius 115.60614727902758
rwrist -13.390526110395633
rhand -19.373691190841996 35.405832658833965
rfingers 7.125019999999998
rthumb 5.908089266693727 6.2347608448969885
143
root -0.8042646128242507 17.19688847437927 23.47069260712832 2.0536299291709144 -2.977131306488232 -2.143081974064399
lfemur -19.293324170349784 4.446491453973811 -21.103757886752504
ltibia 60.4995898837004
lfoot 3.5231037152678955 -8.181374713161436
ltoes -9.31514295173033
rfemur -16.577520720349757 4.570973749495218 29.075762098304782
rtibia 86.71372878635782
rfoot 0.6934243515868048 -10.56593127724707
rtoes 3.825745975869162
lowerback 16.266985595170368 1.5674828413881896 1.3118543265322278
upperback -0.0940652072155046 2.540174001311383 0.9780312883889473
thorax -10.53328141717775 1.1963158057329035 -0.008922096254291412
lowerneck -19.011759494683105 -4.77994090541749 -2.1611985214071296
upperneck 9.093547070230342 -6.586866418646892 4.446878580204379
head 5.972718278180145 -2.918934918621778 1.1149756682644685
lclavicle 1.124539100352484e-15 -1.4766016290024458e-15
lhumerus -39.029630623241495 -16.761577562656896 97.71120042563322
lradius 108.5356538708398
lwrist 28.344329076805053
lhand -31.122349044146137 0.25582450347280616
lfingers 7.125019999999998
lthumb -4.539910506686466 30.21141481527808
rclavicle 1.1245391004140182e-15 -1.4766016289619986e-15
rhumerus -51.9839100757149 9.749023156764457 -96.84763739357406
rradius 115.49811499446841
rwrist -12.854540895837598
rhand -19.445073102778885 34.55177003782709
rfingers 7.125019999999998
rthumb 5.863117449776712 5.513232555481929
144
root -0.8017722935580626 17.17244149857351 23.545185485188238 2.0906183950467874 -3.0663481679721887 -2.1242364427492197
lfemur -19.34143106652786 4.555152535001687 -21.015330257055503
ltibia 61.33560187420014
lfoot 2.347222765176552 -9.254185087551194
ltoes -10.135628992696416
rfemur -16.66631266790448 4.6713805528363626 29.052147382931874
rtibia 86.9474577263051
rfoot 0.7491147822596664 -10.374896501880228
rtoes 5.198770211686319
lowerback 16.246879403479277 1.5704882725584772 1.2779355746989638
upperback -0.07565581201341176 2.5232875937168204 0.9697587258896733
thorax -10.613384437535856 1.1835788163261804 0.016920543373307617
lowerneck -19.144266020993566 -4.742088577547507 -2.192914540394775
upperneck 8.878388652081366 -6.531272880939579 4.539669174249521
head 5.957635120968443 -2.8822876599943004 1.1401790056885037
lclavicle 1.1245391003547222e-15 -1.4766016290007212e-15
lhumerus -39.161568600532405 -16.759172570893803 97.6238156579252
lradius 108.78194860552411
lwrist 28.36694407278319
lhand -31.393815012246886 0.22602578617930377
lfingers 7.125019999999998
lthumb -4.978547649334264 30.082562517469988
rclavicle 1.1245391004166904e-15 -1.4766016289599519e-15
rhumerus -51.89759645911485 9.82581876552874 -97.01362643850152
rradius 115.43321219369004
rwrist -12.332785278049194
rhand -19.481065837052107 33.93104896717775
rfingers 7.125019999999998
rthumb 5.852802696439214 5.083272031571847
145
root -0.7908612981639813 17.146708608576848 23.380669380156373 2.116960584749138 -3.241644263617986 -2.1133705283701203
lfemur -19.35882547202512 4.716729868193009 -20.90892085882142
ltibia 62.15516347687348
lfoot 1.513587341790247 -9.98318283906208
ltoes -8.254860747559068
rfemur -16.657563618399777 4.742772700095535 29.080279021661344
rtibia 87.14722290844594
rfoot 0.5132147481416851 -10.221353248968287
rtoes 6.81793730985429
lowerback 16.172165369672797 1.57792883179899 1.2659517808776042
upperback -0.04744104951859485 2.50869605518405 0.9133848215299641
thorax -10.561437284766896 1.1882847458138321 0.08148908734592841
lowerneck -19.24684894793817 -4.68869547263667 -2.196269621981315
upperneck 8.688714095611875 -6.4533396043368505 4.606210168195368
head 5.9360761538184175 -2.841435825467904 1.1618332791955281
lclavicle 1.1245391003576038e-15 -1.4766016289984846e-15
lhumerus -39.14609206324611 -16.668460054894346 97.53718326843845
lradius 109.01056930449776
lwrist 28.433053203431527
lhand -31.520493911624797 0.3143811357871837
lfingers 7.125019999999998
lthumb -4.89202007055705 30.29766292438357
rclavicle 1.1245391004187525e-15 -1.4766016289583002e-15
rhumerus -51.852104880348435 9.863846551389523 -97.17919474972372
rradius 115.40052311434991
rwrist -11.850657053995032
rhand -19.400588696256673 33.6774531441661
rfingers 7.125019999999998
rthumb 5.863791760344272 4.848902646010288
146
root -0.7815934637052253 17.128305673363077 23.28103259114806 2.162203946246985 -3.428955959102896 -2.146622441548015
lfemur -19.425451343713995 4.8805848786379045 -20.731930688581848
ltibia 62.971828096753114
lfoot 1.1673279428543233 -9.923273889911304
ltoes -4.778007224986491
rfemur -16.717342931326826 4.822672464040604 29.17524191561517
rtibia 87.30100367525105
rfoot 0.16287615529106558 -10.176763353848406
rtoes 8.23421322283253
lowerback 16.117662509259297 1.5788275364471578 1.284723563859843
upperback -0.06460649466792123 2.502887408017795 0.8747103126588172
thorax -10.58410171693182 1.1859349042559368 0.10315172848859416
lowerneck -19.260360770342928 -4.632585592799684 -2.20832828185899
upperneck 8.496973447308836 -6.374318185625178 4.658931141563567
head 5.913492006072865 -2.7968623840453075 1.1810829635711118
lclavicle 1.1245391003590537e-15 -1.4766016289972488e-15
lhumerus -39.15741028830112 -16.454373808601872 97.54516513397894
lradius 109.30100681694032
lwrist 28.38913615433202
lhand -31.46559804259556 0.567860777027763
lfingers 7.125019999999998
lthumb -4.7954308901032014 30.44619150962919
rclavicle 1.124539100419829e-15 -1.4766016289573143e-15
rhumerus -51.87957594752042 9.863051363176028 -97.35711945413655
rradius 115.42355280303795
rwrist -11.761062955240389
rhand -19.23121970533023 33.676645748830815
rfingers 7.125019999999998
rthumb 5.974851707002369 4.923169407211617
147
root -0.7860055324212568 17.114927801667406 23.250545596718432 2.210394203673487 -3.6322840917552135 -2.231330419730965
lfemur -19.53262540096174 5.045766847839514 -20.47006081110833
ltibia 63.78475139930086
lfoot 1.6725724881731483 -9.101441344772299
ltoes -1.330374284315452
rfemur -16.866729849355217 5.015313306073455 29.344968376458045
rtibia 87.4416424493049
rfoot -0.2364865674020158 -10.239213539226482
rtoes 8.54589697178884
lowerback 16.16946713398211 1.5799240977723987 1.3163441590423997
upperback -0.08714784537545905 2.5068876856399087 0.8930912689772157
thorax -10.723003691817219 1.172604876288802 0.08562489837648579
lowerneck -19.27186609520514 -4.57513970798769 -2.226982721371664
upperneck 8.372034252428238 -6.285254752071062 4.699293341628373
head 5.914054913263563 -2.7466337287975615 1.1951489895992369
lclavicle 1.1245391003619807e-15 -1.4766016289948517e-15
lhumerus -39.165931832299094 -16.14181252981747 97.56861078812145
lradius 109.65831524775723
lwrist 28.214432230065928
lhand -31.426833614899763 0.7094276274161972
lfingers 7.125019999999998
lthumb -4.859513200038392 30.33383876622237
rclavicle 1.1245391004210055e-15 -1.4766016289561493e-15
rhumerus -51.916500528165166 9.868647990979108 -97.51748246808764
rradius 115.47160948910675
rwrist -11.867283397606613
rhand -19.062492222890583 33.73949013633503
rfingers 7.125019999999998
rthumb 6.086266598374751 5.0306482655700435
